<svg width="30" height="30" viewBox="0 0 30 30" fill="none" xmlns="http://www.w3.org/2000/svg">
<path d="M4.00098 0C1.79524 0 0.000976562 1.79442 0.000976562 4.00006C0.000976562 6.20571 1.7945 8 4.00098 8C6.20745 8 8.00098 6.20571 8.00098 4.00006C8.00098 1.79442 6.20659 0 4.00098 0Z" fill="#0055BB"/>
<path d="M14.9998 0C12.7943 0 11 1.79442 11 4.00006C11 6.20571 12.7943 8 14.9998 8C17.2054 8 19 6.20571 19 4.00006C19 1.79442 17.2062 0 14.9998 0Z" fill="#0055BB"/>
<path d="M26 8C28.2052 8 30 6.20573 30 4.00012C30 1.79451 28.2067 0 26 0C23.7933 0 22 1.79439 22 4C22 6.20561 23.7946 8 26 8Z" fill="#FF5000"/>
<path d="M4.00019 19C6.20549 19 8 17.2062 8 15.0002C8 12.7942 6.20549 11 4.00019 11C1.79488 11 0 12.7943 0 15.0002C0 17.2062 1.79488 19 4.00019 19Z" fill="#00B2DD"/>
<path d="M15 19C17.2052 19 19 17.2062 19 15.0002C19 12.7942 17.2067 11 15 11C12.7936 11 11 12.7942 11 15.0002C11 17.2062 12.7944 19 15 19Z" fill="#0055BB"/>
<path d="M26.0007 19C28.2064 19 30 17.2062 30 15.0002C30 12.7942 28.2064 11 26.0007 11C23.795 11 22 12.7942 22 15.0002C22 17.2062 23.7944 19 26.0007 19Z" fill="#FF5000"/>
<path d="M4.00043 22C1.79499 22 0 23.7939 0 26.0001C0 28.2053 1.79499 30 4.00043 30C6.20587 30 8 28.2062 8 26.0001C8 23.7939 6.20587 22 4.00043 22Z" fill="#00B2DD"/>
<path d="M15.0004 22C12.7949 22 11 23.7939 11 26.0001C11 28.2053 12.7942 30 15.0004 30C17.2055 30 19 28.2062 19 26.0001C19 23.7939 17.2055 22 15.0004 22Z" fill="#0055BB"/>
<path d="M26 22C23.7948 22 22 23.7939 22 26.0001C22 28.2053 23.7948 30 26 30C28.2061 30 30 28.2062 30 26.0001C30 23.7939 28.2052 22 26 22Z" fill="#0055BB"/>
</svg>
